<?xml version="1.0" standalone="no"?><!DOCTYPE svg PUBLIC "-//W3C//DTD SVG 1.1//EN" "http://www.w3.org/Graphics/SVG/1.1/DTD/svg11.dtd"><svg t="1681553605973" class="icon" viewBox="0 0 1024 1024" version="1.1" xmlns="http://www.w3.org/2000/svg" p-id="4540" xmlns:xlink="http://www.w3.org/1999/xlink" width="128" height="128"><path d="M353.16736 243.14368c11.01824 0.86528 18.6368 1.66912 26.25024 2.04288 2.90816 0.06144 6.12864-0.18432 8.66816-1.36192 38.56896-17.52064 78.44352-30.89408 120.42752-36.96128 54.8608-7.92576 108.16512-3.46624 157.57312 24.14592 27.8016 15.47776 50.4576 36.58752 66.93376 64.02048 2.03776 3.46624 3.76832 6.8096 9.40544 4.8896 35.66592-12.25728 71.70048-10.09152 107.36128-0.55296 67.8656 18.07872 107.98592 62.90944 121.05216 131.32288 6.62528 35.6608 0 70.58432-13.12256 104.45312-20.61824 53.00224-46.49984 103.14752-83.2768 147.05152-52.00896 61.97248-115.97312 105.0112-195.72224 122.90048-3.71712 0.8704-7.49056 1.36704-11.33056 1.80224-19.99872 2.41664-31.45728-7.61856-34.24256-28.9792a1191.17824 1191.17824 0 0 0-34.85696-168.90368c-16.16384-56.7808-34.55488-112.81408-59.06944-166.5536-19.93728-43.52512-47.98464-81.66912-86.55872-110.89408-49.16224-37.2736-103.33696-41.17504-160.30208-21.17632-44.26752 15.5392-82.28352 41.48736-117.94944 71.51104-25.50784 21.42208-43.71456 47.42656-53.31456 79.19104-12.56448 41.29792-1.98144 79.37536 18.64192 115.47648 21.6064 37.76512 51.69664 68.352 84.7616 96.3328 56.7808 48.0512 120.30464 85.504 186.92608 117.94944 19.99872 9.85088 41.05216 16.28672 63.95904 13.99296 9.53344-1.0496 16.83968-4.5824 22.29248-13.06624 12.8768-20.17792 13.06112-41.856 8.17152-64.08704-9.53856-42.72128-31.88736-79.37536-57.33376-114.17088-8.97536-12.19584-19.50208-23.58784-30.64832-33.93024-10.09664-9.34912-16.28672-7.55712-23.71584 3.90144-1.4848 2.29376-2.60096 4.82816-3.84 7.2448-7.05536 13.80352-22.72256 19.69152-36.224 13.7472-14.4896-6.44096-20.80256-22.23104-14.0544-37.08928 10.58816-23.46496 26.31168-41.78944 52.75136-47.61088 24.14592-5.3248 44.76928 3.15904 62.90944 18.45248 28.35968 23.8336 48.10752 54.54336 66.81088 85.87264 17.7664 29.66016 32.00512 60.92288 38.50752 95.17056 7.61344 39.68512 4.08576 77.13792-21.67296 110.57664-13.55264 17.64864-31.45216 26.56256-52.75136 29.91104-36.71552 5.82144-70.46144-4.27008-102.90176-20.12672-63.77472-31.14496-124.82048-66.99008-180.1728-111.8208-46.24896-37.51936-87.92064-79.19104-116.46464-132.43392-19.00544-35.4816-28.78976-73.25184-25.63072-113.49504 2.85184-36.28032 16.65536-68.79232 37.2736-98.57024C120.7296 351.3088 151.1936 328.33536 182.33856 306.4832c39.87456-27.92448 82.8416-49.22368 131.2-58.07616 14.0544-2.72384 28.48256-3.77344 39.6288-5.26336z m406.90688 107.79648c22.85056 69.2224 22.1696 137.32864 11.9552 205.80864-8.23808 54.79424-22.85056 108.288-41.97888 160.23552a325.85216 325.85216 0 0 0-3.65568 11.14624c0.68608 0.55296 1.30048 1.11616 1.92 1.67424 12.75392-7.86432 25.8816-15.10912 38.144-23.58784 48.66048-33.8688 84.94592-78.6944 111.93856-131.08224 17.27488-33.6128 34.85696-67.48672 38.4512-106.24512 3.52256-38.81984-9.78432-70.58432-39.50592-95.8464-25.56928-21.79584-56.6528-25.5744-88.35072-26.3168-9.10336-0.24576-18.38592 2.66752-28.91776 4.21376zM491.48928 290.63168c3.03104 3.15904 4.52096 5.0176 6.37952 6.56384 42.72128 37.02272 74.67008 81.97632 96.77312 133.67296 29.66016 68.79232 52.43904 139.9296 70.51776 212.5568 0.49664 2.2272 1.55136 4.39296 2.41664 6.55872 20.43392-63.1552 33.74592-126.73536 31.88736-192.86528-1.0496-32.6912-6.8096-64.45568-19.50208-94.91456-15.60576-37.58592-41.48736-63.77472-81.4848-74.5472-29.40928-7.92576-58.88-7.18336-88.53504-1.54624-5.82656 1.1776-11.52 2.7904-18.45248 4.52096z" p-id="4541" fill="#707070"></path></svg>