<?xml version="1.0" standalone="no"?><!DOCTYPE svg PUBLIC "-//W3C//DTD SVG 1.1//EN" "http://www.w3.org/Graphics/SVG/1.1/DTD/svg11.dtd"><svg t="1678001883547" class="icon" viewBox="0 0 1024 1024" version="1.1" xmlns="http://www.w3.org/2000/svg" p-id="31841" xmlns:xlink="http://www.w3.org/1999/xlink" width="32" height="32"><path d="M124.416 7.168C70.144 24.576 28.672 62.464 10.24 111.104 0.512 137.728 0 150.528 0 512c0 363.008 0.512 374.272 10.24 401.408 14.848 38.912 45.056 71.168 86.016 91.136l34.304 16.896h762.88l34.304-16.896c36.864-17.92 63.488-46.08 82.432-86.528l11.264-24.576V130.56l-11.264-24.576c-18.944-40.448-45.568-68.608-82.432-86.528L893.44 2.56 519.68 1.536c-299.008-1.024-377.856 0.512-395.264 5.632z m435.712 229.376c7.168 9.728 8.192 39.424 8.192 218.112v206.336l-12.8 12.288c-11.264 11.776-16.384 12.8-58.88 12.8-42.496 0-47.616-1.024-58.88-12.8l-12.8-12.288V454.656c0-178.688 1.024-208.384 8.192-218.112 7.168-10.24 11.776-11.264 63.488-11.264s56.32 1.024 63.488 11.264z m189.44 101.888l13.312 10.24v316.416l-13.312 10.24c-11.776 9.216-20.992 10.752-59.392 10.752-41.472 0-46.592-1.024-57.856-12.8l-12.8-12.288V352.768l12.8-12.288c11.264-11.776 16.384-12.8 57.856-12.8 38.4 0 47.616 1.536 59.392 10.752zM360.96 448c12.8 12.288 12.8 12.8 12.8 112.64 0 99.84 0 100.352-12.8 112.64-11.264 11.776-16.384 12.8-57.856 12.8-38.4 0-47.616-1.536-59.392-10.752l-13.312-10.24V561.664c0-98.304 0.512-103.424 11.264-114.688 9.728-10.752 15.36-11.776 58.88-11.776 44.032 0 49.152 1.024 60.416 12.8z m403.968 279.552c15.872 12.288 17.92 36.864 4.608 51.712-7.68 8.704-23.04 9.216-271.872 9.216-238.592 0-264.704-1.024-273.408-8.704-14.336-12.8-12.288-39.424 4.096-52.224C241.664 716.8 246.784 716.8 496.64 716.8s254.976 0 268.288 10.752z" p-id="31842" fill="#d81e06"></path></svg>