<?xml version="1.0" standalone="no"?><!DOCTYPE svg PUBLIC "-//W3C//DTD SVG 1.1//EN" "http://www.w3.org/Graphics/SVG/1.1/DTD/svg11.dtd"><svg t="1681028648479" class="icon" viewBox="0 0 1588 1024" version="1.1" xmlns="http://www.w3.org/2000/svg" p-id="18627" xmlns:xlink="http://www.w3.org/1999/xlink" width="198.5" height="128"><path d="M743.348747 707.09786c-117.042147-1.704056-210.053802-92.151355-213.834158-213.346103-2.944873-94.484091-2.696709-189.249434 0.8603-283.708709C534.684661 96.119488 613.724714 15.697992 729.021445 1.29624c93.565886-11.688498 189.299067 56.879059 221.502408 156.880651 7.966046 24.750166 3.292302 38.721768-21.267606 49.351434-44.164819 19.108584-77.699971 49.583054-91.712933 97.768121-18.752883 64.489404 7.643434 120.57434 69.394768 146.978929 56.663984 24.237295 60.634599 32.559042 44.272357 92.937206-26.222603 96.800283-111.607368 163.291539-207.861692 161.885279z" fill="#fb3738" p-id="18628"></path><path d="M699.829153 932.091101c0-5.252793-0.612136-10.588306 0.099266-15.750106 4.268411-30.797082-8.239026-45.794426-39.788871-50.534347-63.819363-9.603925-119.813305-37.803563-168.991025-79.437115C438.36416 741.675299 401.230639 686.616105 383.82611 619.388631c-11.978022-46.274208-2.266559-75.607126 25.502929-83.970234 26.545215-7.990863 46.365201 9.570836 58.078515 59.2697 33.485519 142.057021 196.446174 224.488642 348.231201 188.397407 103.343526-24.56818 178.015903-82.787321 205.669582-190.498524 2.084573-8.106672 4.996357-16.064446 8.197665-23.815417 8.545094-20.69683 20.299769-39.209822 46.522372-31.756648 25.85863 7.345638 37.034256 27.273161 32.923015 53.586758-11.076361 70.908565-43.147349 131.460443-94.914241 180.836693-50.534347 48.193339-110.28383 79.470203-179.074733 93.880227-53.47922 11.208715-48.350509 4.971541-47.622563 60.783497 0.248163 18.893509 0.90166 37.960733-1.17464 56.655712-2.605716 23.360451-16.618678 40.516817-40.409279 41.219946-23.691336 0.70313-38.721768-15.328228-42.750288-38.61423-3.019322-17.478978-3.259213-35.429466-4.739921-53.173152 0.512871-0.016544 1.034014-0.057905 1.563429-0.099265zM890.352493 353.63041c-1.207729-47.928631 35.909249-91.580579 82.357171-96.246051 41.286123-4.144329 54.504962-26.222603 61.792695-61.652069 8.445829-41.046232 18.694979-81.935293 31.49194-121.823429 14.128771-44.057281 33.948758-48.31742 67.310195-16.089263 21.08562 20.374218 40.591266 42.469036 59.848748 64.621758 12.540525 14.426568 19.464285 31.276865 3.763812 47.862454-15.733562 16.618678-31.508484 10.017531-47.581202-1.522069-33.394526-23.972588-32.873383-23.418356-43.006723 15.774923-13.384281 51.766892-25.031418 104.294819-43.056356 154.473465-23.600342 65.738493-98.512611 89.496006-147.665515 49.094999-12.747328-10.489041-20.22532-27.397243-25.254765-34.494718z" fill="#fb3738" p-id="18629"></path></svg>