<?xml version="1.0" standalone="no"?><!DOCTYPE svg PUBLIC "-//W3C//DTD SVG 1.1//EN" "http://www.w3.org/Graphics/SVG/1.1/DTD/svg11.dtd"><svg t="1685255107925" class="icon" viewBox="0 0 1024 1024" version="1.1" xmlns="http://www.w3.org/2000/svg" p-id="32771" xmlns:xlink="http://www.w3.org/1999/xlink" width="128" height="128"><path d="M466.7 541.2c45.1-36 74.1-91.5 74.1-153.6 0-108.3-88.1-196.5-196.5-196.5s-196.5 88.1-196.5 196.5c0 62.1 29 117.6 74.1 153.6-27.3 13.8-52.6 32.4-74.7 55.3-52.2 54.1-81 125.9-81 202.2 0 19.9 16.1 36 36 36s36-16.1 36-36c0-118.4 92.5-214.6 206.1-214.6s206.1 96.3 206.1 214.6c0 19.9 16.1 36 36 36s36-16.1 36-36c0-76.3-28.8-148.2-81-202.2-22.2-22.9-47.4-41.4-74.7-55.3zM219.8 387.6c0-68.6 55.8-124.5 124.5-124.5S468.7 319 468.7 387.6s-55.8 124.5-124.5 124.5-124.4-55.8-124.4-124.5zM910 192H576.1c-19.9 0-36 16.1-36 36s16.1 36 36 36h310.5v501.5H706.7c-19.9 0-36 16.1-36 36s16.1 36 36 36H910c26.8 0 48.6-21.5 48.6-48V240c0-26.4-21.8-48-48.6-48z" p-id="32772" fill="#b1ccf9"></path><path d="M625.6 395.6h184.3c19.9 0 36-16.1 36-36s-16.1-36-36-36H625.6c-19.9 0-36 16.1-36 36s16.1 36 36 36zM845.9 499.7c0-19.9-16.1-36-36-36H625.6c-19.9 0-36 16.1-36 36s16.1 36 36 36h184.3c19.9 0 36-16.2 36-36zM809.9 676c19.9 0 36-16.1 36-36s-16.1-36-36-36H677.4c-19.9 0-36 16.1-36 36s16.1 36 36 36h132.5z" p-id="32773" fill="#b1ccf9"></path></svg>