<?xml version="1.0" standalone="no"?><!DOCTYPE svg PUBLIC "-//W3C//DTD SVG 1.1//EN" "http://www.w3.org/Graphics/SVG/1.1/DTD/svg11.dtd"><svg t="1679478232978" class="icon" viewBox="0 0 1024 1024" version="1.1" xmlns="http://www.w3.org/2000/svg" p-id="45764" width="32" height="32" xmlns:xlink="http://www.w3.org/1999/xlink"><path d="M958.709 97.672c0.01-12.555-5.593-24.447-15.255-32.393a41.316 41.316 0 0 0-34.595-8.61L384.945 163.7c-19.36 3.955-33.28 21.073-33.296 40.942l-0.33 477.604c-29.119-16.737-63.945-25.944-101.395-25.944h-0.157c-47.75 0-92.991 15.038-127.399 43.52-36.778 30.448-57.051 67.603-57.077 111.975-0.055 88.384 82.675 156.375 184.416 156.375h0.158c47.76 0 90.444-11.96 124.856-40.443 36.783-30.443 54.52-69.159 54.52-113.514V815.294l2.846-407.194 442.042-89.83 0.473 247.499c-29.042-16.597-63.071-23.819-100.354-23.819h-0.168c-47.75 0-92.99 13.146-127.399 41.624-36.786 30.442-57.061 68.54-57.087 112.915-0.056 88.384 82.68 157.331 184.435 157.331h0.127c97.022 0 176.962-63.574 184.162-146.288 0.07-0.984 0.254-5.492 0.113-16.95l0.278-592.91z m-634.255 765.72c-19.57 16.198-46.054 21.615-74.59 21.615h-0.097c-54.951 0-101.355-31.69-101.33-73.255 0.01-18.933 9.52-35.063 26.77-49.342 19.563-16.195 46.039-22.942 74.56-22.942h0.097c54.97 0 101.39 33.026 101.364 74.6-0.015 18.926-9.52 35.044-26.774 49.323z m110.252-529.878l0.065-94.667 440.756-90.042-0.065 94.842-440.756 89.867zM774.16 770.656h-0.076c-54.96 0-101.37-33.586-101.344-75.156 0.01-18.934 9.52-34.117 26.774-48.392 19.563-16.195 46.04-21.992 74.57-21.992h0.107c52.344 0 102.061 27.31 102.061 66.251v11.797c-10.395 38.907-49.78 67.492-102.092 67.492z" fill="#8a8a8a" p-id="45765"></path></svg>