<?xml version="1.0" standalone="no"?><!DOCTYPE svg PUBLIC "-//W3C//DTD SVG 1.1//EN" "http://www.w3.org/Graphics/SVG/1.1/DTD/svg11.dtd"><svg t="1679478286999" class="icon" viewBox="0 0 1024 1024" version="1.1" xmlns="http://www.w3.org/2000/svg" p-id="46941" width="128" height="128" xmlns:xlink="http://www.w3.org/1999/xlink"><path d="M406.528 512c0-57.173333 47.232-103.466667 105.472-103.466667s105.472 46.336 105.472 103.466667c0 57.173333-47.232 103.466667-105.472 103.466667S406.528 569.130667 406.528 512zM512 459.306667c-29.653333 0-53.76 23.594667-53.76 52.693333s24.106667 52.693333 53.76 52.693333c29.653333 0 53.76-23.594667 53.76-52.693333s-24.106667-52.693333-53.76-52.693333z" fill="#707070" p-id="46942"></path><path d="M410.581333 298.538667c10.282667 9.728 10.581333 25.813333 0.64 35.882666-96.426667 97.962667-96.426667 257.194667 0 355.157334a25.045333 25.045333 0 0 1-0.64 35.882666 26.197333 26.197333 0 0 1-36.565333-0.64c-115.797333-117.632-115.797333-308.010667 0-425.642666a26.197333 26.197333 0 0 1 36.565333-0.64zM613.418667 298.538667a26.197333 26.197333 0 0 1 36.565333 0.64c115.797333 117.632 115.797333 308.010667 0 425.642666a26.197333 26.197333 0 0 1-36.565333 0.64 25.045333 25.045333 0 0 1-0.64-35.882666c96.426667-97.962667 96.426667-257.194667 0-355.157334a25.045333 25.045333 0 0 1 0.64-35.882666z" fill="#707070" p-id="46943"></path><path d="M291.84 221.056a25.045333 25.045333 0 0 1-0.64 35.882667c-148.650667 140.970667-148.650667 369.152 0 510.122666 10.282667 9.728 10.581333 25.770667 0.64 35.84a26.197333 26.197333 0 0 1-36.565333 0.64c-169.685333-160.896-169.685333-422.186667 0-583.082666a26.197333 26.197333 0 0 1 36.565333 0.597333zM732.16 221.056a26.197333 26.197333 0 0 1 36.565333-0.597333c169.685333 160.896 169.685333 422.186667 0 583.082666a26.197333 26.197333 0 0 1-36.565333-0.597333 25.045333 25.045333 0 0 1 0.64-35.882667c148.650667-140.970667 148.650667-369.152 0-510.122666a25.045333 25.045333 0 0 1-0.64-35.84z" fill="#707070" p-id="46944"></path></svg>