<?xml version="1.0" standalone="no"?><!DOCTYPE svg PUBLIC "-//W3C//DTD SVG 1.1//EN" "http://www.w3.org/Graphics/SVG/1.1/DTD/svg11.dtd"><svg t="1681028460278" class="icon" viewBox="0 0 1024 1024" version="1.1" xmlns="http://www.w3.org/2000/svg" p-id="6104" xmlns:xlink="http://www.w3.org/1999/xlink" width="128" height="128"><path d="M919.04 0H256.4608a153.6 153.6 0 0 0-152.9344 153.6v716.8a153.6 153.6 0 0 0 152.9344 153.6h611.6352a51.2 51.2 0 0 0 34.6112-88.7808 94.6688 94.6688 0 0 1-34.6112-62.9248 96.1536 96.1536 0 0 1 33.8432-64.3584 69.2736 69.2736 0 0 0 11.9296-17.5104 50.6368 50.6368 0 0 0 3.9424-31.7952 72.3456 72.3456 0 0 0 1.2288-12.544V0zM358.4 460.8a166.6048 166.6048 0 0 1 101.9904-50.2784V204.8a50.944 50.944 0 0 1 79.2064-42.5984l152.8832 102.4-56.32 85.1968-73.6256-49.3056V512h-0.9728a168.2432 168.2432 0 0 1-50.0736 102.4c-56.32 56.32-136.1408 67.9936-178.3808 25.6S302.08 517.376 358.4 460.8z m415.6928 460.8H256.4608a51.2 51.2 0 0 1 0-102.4h518.5024a160.7168 160.7168 0 0 0-0.8704 102.4z" fill="#fb3738" p-id="6105"></path></svg>