<?xml version="1.0" standalone="no"?><!DOCTYPE svg PUBLIC "-//W3C//DTD SVG 1.1//EN" "http://www.w3.org/Graphics/SVG/1.1/DTD/svg11.dtd"><svg t="1682428934526" class="icon" viewBox="0 0 1024 1024" version="1.1" xmlns="http://www.w3.org/2000/svg" p-id="7110" xmlns:xlink="http://www.w3.org/1999/xlink" width="128" height="128"><path d="M853.333333 800a21.333333 21.333333 0 0 1 2.496 42.517333L853.333333 842.666667H170.666667a21.333333 21.333333 0 0 1-2.496-42.517334L170.666667 800h682.666666z m0-213.333333a21.333333 21.333333 0 0 1 2.496 42.517333L853.333333 629.333333H170.666667a21.333333 21.333333 0 0 1-2.496-42.517333L170.666667 586.666667h682.666666z m-704-362.666667a21.333333 21.333333 0 0 1 32.64-18.090667l170.666667 106.666667a21.333333 21.333333 0 0 1 0 36.181333l-170.666667 106.666667A21.333333 21.333333 0 0 1 149.333333 437.333333z m704 170.666667a21.333333 21.333333 0 0 1 2.496 42.517333L853.333333 437.333333H512a21.333333 21.333333 0 0 1-2.496-42.517333L512 394.666667h341.333333zM192 262.464v136.384l109.098667-68.202667L192 262.464zM853.333333 202.666667a21.333333 21.333333 0 0 1 2.496 42.517333L853.333333 245.333333H512a21.333333 21.333333 0 0 1-2.496-42.517333L512 202.666667h341.333333z" fill="#ffffff" p-id="7111"></path></svg>