<?xml version="1.0" standalone="no"?><!DOCTYPE svg PUBLIC "-//W3C//DTD SVG 1.1//EN" "http://www.w3.org/Graphics/SVG/1.1/DTD/svg11.dtd"><svg t="1682430080652" class="icon" viewBox="0 0 1024 1024" version="1.1" xmlns="http://www.w3.org/2000/svg" p-id="6266" xmlns:xlink="http://www.w3.org/1999/xlink" width="128" height="128"><path d="M512 0C229.451852 0 0 229.451852 0 512s229.451852 512 512 512 512-229.451852 512-512S794.548148 0 512 0zM512 986.074074C250.311111 986.074074 37.925926 773.688889 37.925926 512S250.311111 37.925926 512 37.925926s474.074074 212.385185 474.074074 474.074074S773.688889 986.074074 512 986.074074z" p-id="6267" fill="#ffffff"></path><path d="M396.325926 293.925926c-11.377778 0-18.962963 15.17037-18.962963 32.237037l0 371.674074c0 17.066667 7.585185 32.237037 18.962963 32.237037s18.962963-15.17037 18.962963-32.237037L415.288889 326.162963C415.288889 309.096296 405.807407 293.925926 396.325926 293.925926z" p-id="6268" fill="#ffffff"></path><path d="M627.674074 293.925926c-11.377778 0-18.962963 15.17037-18.962963 32.237037l0 371.674074c0 17.066667 7.585185 32.237037 18.962963 32.237037 11.377778 0 18.962963-15.17037 18.962963-32.237037L646.637037 326.162963C646.637037 309.096296 639.051852 293.925926 627.674074 293.925926z" p-id="6269" fill="#ffffff"></path></svg>