<?xml version="1.0" standalone="no"?><!DOCTYPE svg PUBLIC "-//W3C//DTD SVG 1.1//EN" "http://www.w3.org/Graphics/SVG/1.1/DTD/svg11.dtd"><svg t="1682430110150" class="icon" viewBox="0 0 1024 1024" version="1.1" xmlns="http://www.w3.org/2000/svg" p-id="6515" xmlns:xlink="http://www.w3.org/1999/xlink" width="128" height="128"><path d="M512 64.3C265.1 64.3 64.3 265.1 64.3 512c0 246.9 200.9 447.7 447.7 447.7 246.9 0 447.7-200.8 447.7-447.7 0-246.9-200.8-447.7-447.7-447.7z m0 856.5c-225.4 0-408.8-183.4-408.8-408.8S286.6 103.2 512 103.2 920.8 286.6 920.8 512 737.4 920.8 512 920.8z" fill="#ffffff" p-id="6516"></path><path d="M715.8 496.9L410.1 320.5c-12.5-7.2-28.2 1.8-28.2 16.3v352.9c0 14.5 15.7 23.5 28.2 16.3l305.6-176.5c12.6-7.2 12.6-25.3 0.1-32.6z" fill="#ffffff" p-id="6517"></path></svg>