<?xml version="1.0" standalone="no"?><!DOCTYPE svg PUBLIC "-//W3C//DTD SVG 1.1//EN" "http://www.w3.org/Graphics/SVG/1.1/DTD/svg11.dtd"><svg t="1681553684136" class="icon" viewBox="0 0 1024 1024" version="1.1" xmlns="http://www.w3.org/2000/svg" p-id="7981" xmlns:xlink="http://www.w3.org/1999/xlink" width="128" height="128"><path d="M782.1312 871.3728H252.16c-88.5248 0-160.512-71.9872-160.512-160.512v-34.7136c0-32.768 20.4288-62.464 50.7904-73.8304 39.2704-14.7456 65.6384-52.8384 65.6384-94.7712S181.7088 427.52 142.4384 412.7744c-30.3616-11.4176-50.7904-41.0624-50.7904-73.8304v-34.7136c0-88.5248 71.9872-160.512 160.512-160.512h529.9712c88.5248 0 160.512 71.9872 160.512 160.512v33.3312c0 33.536-21.0944 63.488-52.48 74.4448-40.4992 14.1824-67.7376 52.5824-67.7376 95.5392 0 51.968 40.4992 96.256 92.16 100.8128 16.896 1.4848 29.3888 16.384 27.904 33.3312a30.6688 30.6688 0 0 1-33.3312 27.904c-84.48-7.4752-148.1728-77.1072-148.1728-161.9968 0-69.0176 43.7248-130.7136 108.8512-153.4976 6.8096-2.3552 11.3664-9.0112 11.3664-16.4864v-33.3312c0-54.6304-44.4416-99.072-99.072-99.072H252.16c-54.6304 0-99.072 44.4416-99.072 99.072v34.7136c0 7.3216 4.4032 13.8752 10.9568 16.3328 63.1296 23.7056 105.5232 84.8896 105.5232 152.32 0 67.4304-42.3936 128.6144-105.5232 152.32-6.5536 2.4576-10.9568 9.0112-10.9568 16.3328v34.7136c0 54.6304 44.4416 99.072 99.072 99.072h529.9712c34.56 0 66.048-17.5616 84.2752-47.0016a30.6688 30.6688 0 0 1 42.2912-9.9328 30.73024 30.73024 0 0 1 9.9328 42.2912c-29.4912 47.5136-80.5376 75.9296-136.4992 75.9296z" fill="#707070" p-id="7982"></path><path d="M399.36 267.9808c-16.9472 0-30.72 13.7728-30.72 30.72v35.84c0 16.9472 13.7728 30.72 30.72 30.72s30.72-13.7728 30.72-30.72v-35.84c0-16.9472-13.7728-30.72-30.72-30.72zM399.36 443.904c-16.9472 0-30.72 13.7728-30.72 30.72v75.4176c0 16.9472 13.7728 30.72 30.72 30.72s30.72-13.7728 30.72-30.72V474.624c0-16.9984-13.7728-30.72-30.72-30.72zM399.36 659.3536c-16.9472 0-30.72 13.7728-30.72 30.72v35.84c0 16.9472 13.7728 30.72 30.72 30.72s30.72-13.7728 30.72-30.72v-35.84c0-16.9472-13.7728-30.72-30.72-30.72z" fill="#707070" p-id="7983"></path></svg>