<?xml version="1.0" standalone="no"?><!DOCTYPE svg PUBLIC "-//W3C//DTD SVG 1.1//EN" "http://www.w3.org/Graphics/SVG/1.1/DTD/svg11.dtd"><svg t="1685254781469" class="icon" viewBox="0 0 1024 1024" version="1.1" xmlns="http://www.w3.org/2000/svg" p-id="20897" xmlns:xlink="http://www.w3.org/1999/xlink" width="128" height="128"><path d="M819.968 373.845333l120.96-70.4c21.888-13.653333 40.405333-2.304 40.405333 20.437334v380.032c0 25.002667-18.517333 34.090667-40.405333 20.48l-120.96-70.442667c-22.4-13.653333-40.405333-27.264-40.405333-49.962667V421.546667c0-22.741333 18.56-34.090667 40.405333-47.701334zM655.274667 213.333333H127.914667a83.925333 83.925333 0 0 0-60.16 25.130667c-15.957333 16.213333-25.002667 38.186667-25.088 61.184v424.704c0.085333 22.997333 9.130667 45.013333 25.130666 61.184 15.957333 16.213333 37.546667 25.216 60.074667 25.130667h527.36a83.925333 83.925333 0 0 0 60.16-25.130667c15.957333-16.213333 25.002667-38.186667 25.088-61.184V299.648a87.637333 87.637333 0 0 0-25.088-61.184A83.925333 83.925333 0 0 0 655.232 213.333333z m-402.602667 264.96c-40.917333 0-74.069333-33.877333-74.069333-75.690666s33.152-75.690667 74.112-75.690667c40.917333 0 74.069333 33.877333 74.069333 75.690667s-33.152 75.690667-74.069333 75.690666z" fill="#346ced" p-id="20898"></path></svg>