<?xml version="1.0" standalone="no"?><!DOCTYPE svg PUBLIC "-//W3C//DTD SVG 1.1//EN" "http://www.w3.org/Graphics/SVG/1.1/DTD/svg11.dtd"><svg t="1679478062971" class="icon" viewBox="0 0 1024 1024" version="1.1" xmlns="http://www.w3.org/2000/svg" p-id="36366" width="128" height="128" xmlns:xlink="http://www.w3.org/1999/xlink"><path d="M525.312 175.104c123.904 0 225.28 106.496 225.28 238.592v27.648c0 131.072-101.376 238.592-225.28 238.592h-53.248c-92.16 0-122.88 74.752-140.288 119.808-2.048 4.096-3.072 8.192-5.12 13.312-6.144-9.216-13.312-20.48-19.456-29.696-12.288-18.432-25.6-39.936-40.96-60.416-37.888-49.152-177.152-135.168-177.152-281.6v-27.648c0-131.072 101.376-238.592 225.28-238.592h210.944m0-37.888H314.368C168.96 137.216 51.2 261.12 51.2 413.696v27.648c0 175.104 149.504 258.048 184.32 304.128 34.816 45.056 59.392 98.304 78.848 110.592 6.144 4.096 11.264 5.12 16.384 5.12 41.984 0 33.792-143.36 141.312-143.36h53.248C670.72 717.824 788.48 593.92 788.48 441.344v-27.648c0-152.576-117.76-276.48-263.168-276.48z m297.984 301.056c-9.216 0-17.408 7.168-18.432 17.408-1.024 10.24 6.144 19.456 16.384 20.48 67.584 7.168 114.688 60.416 114.688 131.072v15.36c-1.024 77.824-50.176 108.544-52.224 109.568l-2.048 2.048c-1.024 1.024-27.648 22.528-49.152 50.176-9.216 11.264-16.384 23.552-23.552 33.792-5.12 7.168-11.264 16.384-14.336 21.504-2.048-4.096-4.096-8.192-5.12-12.288-10.24-24.576-27.648-66.56-78.848-66.56H675.84c-32.768 0-46.08-1.024-65.536-16.384-3.072-3.072-8.192-4.096-12.288-4.096-5.12 0-11.264 2.048-14.336 7.168-6.144 8.192-5.12 19.456 3.072 26.624 30.72 25.6 57.344 25.6 90.112 25.6h35.84c24.576 0 32.768 17.408 44.032 43.008 7.168 18.432 16.384 38.912 37.888 38.912 6.144 0 12.288-2.048 19.456-6.144 10.24-6.144 18.432-18.432 28.672-35.84 6.144-10.24 13.312-21.504 21.504-30.72 16.384-21.504 37.888-39.936 41.984-43.008 10.24-7.168 66.56-48.128 68.608-140.288v-15.36c0-90.112-61.44-159.744-148.48-168.96-2.048-3.072-3.072-3.072-3.072-3.072zM419.84 589.824c-95.232 0-173.056-62.464-173.056-139.264 0-10.24 8.192-18.432 18.432-18.432s18.432 8.192 18.432 18.432c0 56.32 60.416 101.376 136.192 101.376s136.192-46.08 136.192-101.376c0-10.24 8.192-18.432 18.432-18.432s18.432 8.192 18.432 18.432c0 76.8-76.8 139.264-173.056 139.264z m0 0" fill="#ffffff" p-id="36367"></path></svg>